<svg xmlns="http://www.w3.org/2000/svg" width="24" height="24" viewBox="0 0 24 24" fill="none">
  <circle cx="12" cy="12" r="10" fill="#98C910"/>
  <path d="M10.42 14.2539L15.9006 8.21381C16.03 8.07127 16.1809 8 16.3533 8C16.5258 8 16.6767 8.07127 16.806 8.21381C16.9353 8.35635 17 8.52573 17 8.72196C17 8.91819 16.9353 9.08734 16.806 9.2294L10.8727 15.7862C10.7433 15.9287 10.5924 16 10.42 16C10.2475 16 10.0966 15.9287 9.96729 15.7862L7.18654 12.7216C7.05721 12.5791 6.99512 12.4099 7.0003 12.2142C7.00547 12.0184 7.07294 11.849 7.20271 11.706C7.33248 11.563 7.48618 11.4917 7.6638 11.4922C7.84142 11.4927 7.9949 11.5639 8.12424 11.706L10.42 14.2539Z" fill="white" stroke="white" stroke-width="0.5"/>
</svg>