<svg xmlns="http://www.w3.org/2000/svg" width="17" height="17" viewBox="0 0 17 17" fill="none">
  <path d="M6.76455 10.7312L12.7677 4.72813C12.9093 4.58646 13.0746 4.51562 13.2635 4.51562C13.4524 4.51562 13.6177 4.58646 13.7593 4.72813C13.901 4.86979 13.9718 5.03814 13.9718 5.23317C13.9718 5.42819 13.901 5.59631 13.7593 5.7375L7.26038 12.2542C7.11871 12.3958 6.95344 12.4667 6.76455 12.4667C6.57566 12.4667 6.41038 12.3958 6.26872 12.2542L3.22288 9.20833C3.08122 9.06667 3.01321 8.89856 3.01888 8.704C3.02455 8.50944 3.09845 8.3411 3.24059 8.19896C3.38273 8.05682 3.55108 7.98599 3.74563 7.98646C3.94019 7.98693 4.1083 8.05776 4.24996 8.19896L6.76455 10.7312Z" fill="white"/>
</svg>