<svg xmlns="http://www.w3.org/2000/svg" width="24" height="24" viewBox="0 0 24 24" fill="none">
  <mask id="mask0_525_3560" style="mask-type:alpha" maskUnits="userSpaceOnUse" x="0" y="0" width="24" height="24">
    <rect width="24" height="24" fill="#D9D9D9"/>
  </mask>
  <g mask="url(#mask0_525_3560)">
    <path d="M4 18V10V10.325V6V18ZM4 8H20V6H4V8ZM11.675 20H4C3.45 20 2.97917 19.8042 2.5875 19.4125C2.19583 19.0208 2 18.55 2 18V6C2 5.45 2.19583 4.97917 2.5875 4.5875C2.97917 4.19583 3.45 4 4 4H20C20.55 4 21.0208 4.19583 21.4125 4.5875C21.8042 4.97917 22 5.45 22 6V11.25C21.4 10.8333 20.75 10.5208 20.05 10.3125C19.35 10.1042 18.6333 10 17.9 10C17 10 16.1333 10.175 15.3 10.525C14.4667 10.875 13.7333 11.3667 13.1 12H4V18H11.075C11.125 18.35 11.2 18.6917 11.3 19.025C11.4 19.3583 11.525 19.6833 11.675 20ZM19.675 19.375L20.375 18.675L18.5 16.8V14H17.5V17.2L19.675 19.375ZM18.025 22C16.625 22 15.4375 21.5167 14.4625 20.55C13.4875 19.5833 13 18.4 13 17C13 15.6 13.4875 14.4167 14.4625 13.45C15.4375 12.4833 16.625 12 18.025 12C19.4083 12 20.5833 12.4875 21.55 13.4625C22.5167 14.4375 23 15.6167 23 17C23 18.3833 22.5167 19.5625 21.55 20.5375C20.5833 21.5125 19.4083 22 18.025 22Z" fill="white"/>
  </g>
</svg>