<svg width="72" height="72" viewBox="0 0 72 72" fill="none" xmlns="http://www.w3.org/2000/svg">
<mask id="mask0_544_7131" style="mask-type:alpha" maskUnits="userSpaceOnUse" x="0" y="0" width="72" height="72">
<rect width="72" height="72" fill="#D9D9D9"/>
</mask>
<g mask="url(#mask0_544_7131)">
<path d="M11.7892 37.5H50.2108L48.0832 30H13.9794L11.7892 37.5ZM43.0146 42.5H19.048L18.3597 47.5H43.6403L43.0146 42.5ZM10.9757 65L14.0419 42.5H8.47269C7.63835 42.5 6.9813 42.1667 6.50155 41.5C6.02181 40.8333 5.88623 40.1042 6.09481 39.3125L9.66164 26.8125C9.8285 26.2708 10.1205 25.8333 10.5377 25.5C10.9549 25.1667 11.4555 25 12.0395 25H49.9605C50.5445 25 51.0451 25.1667 51.4623 25.5C51.8795 25.8333 52.1715 26.2708 52.3384 26.8125L55.9052 39.3125C56.1138 40.1042 55.9782 40.8333 55.4984 41.5C55.0187 42.1667 54.3616 42.5 53.5273 42.5H48.0206L51.0243 65H46.0182L44.3287 52.5H17.6713L15.9818 65H10.9757Z" fill="#1C95FF"/>
</g>
<mask id="mask1_544_7131" style="mask-type:alpha" maskUnits="userSpaceOnUse" x="47" y="1" width="26" height="26">
<rect x="47.5" y="1.5" width="25" height="25" fill="#D9D9D9" stroke="#1C95FF"/>
</mask>
<g mask="url(#mask1_544_7131)">
<path d="M61.75 6.25V12.25H67.75V15.75H61.75V21.75H58.25V15.75H52.25V12.25H58.25V6.25H61.75Z" fill="#1C95FF" stroke="#1C95FF" stroke-width="1.5"/>
</g>
</svg>
