<svg width="16" height="16" viewBox="0 0 16 16" fill="none" xmlns="http://www.w3.org/2000/svg">
<mask id="mask0_374_3973" style="mask-type:alpha" maskUnits="userSpaceOnUse" x="0" y="0" width="16" height="16">
<rect width="16" height="16" fill="#D9D9D9"/>
</mask>
<g mask="url(#mask0_374_3973)">
<path d="M7.99998 14.6833C7.82221 14.6833 7.65276 14.65 7.49165 14.5833C7.33054 14.5167 7.18332 14.4222 7.04998 14.3L1.69998 8.94998C1.57776 8.81665 1.48332 8.66943 1.41665 8.50832C1.34998 8.34721 1.31665 8.17776 1.31665 7.99998C1.31665 7.82221 1.34998 7.64998 1.41665 7.48332C1.48332 7.31665 1.57776 7.17221 1.69998 7.04998L7.04998 1.69998C7.18332 1.56665 7.33054 1.46943 7.49165 1.40832C7.65276 1.34721 7.82221 1.31665 7.99998 1.31665C8.17776 1.31665 8.34998 1.34721 8.51665 1.40832C8.68332 1.46943 8.82776 1.56665 8.94998 1.69998L14.3 7.04998C14.4333 7.17221 14.5305 7.31665 14.5917 7.48332C14.6528 7.64998 14.6833 7.82221 14.6833 7.99998C14.6833 8.17776 14.6528 8.34721 14.5917 8.50832C14.5305 8.66943 14.4333 8.81665 14.3 8.94998L8.94998 14.3C8.82776 14.4222 8.68332 14.5167 8.51665 14.5833C8.34998 14.65 8.17776 14.6833 7.99998 14.6833ZM7.99998 13.35L13.35 7.99998L7.99998 2.64998L2.64998 7.99998L7.99998 13.35ZM7.33332 8.66665H8.66665V4.66665H7.33332V8.66665ZM7.99998 10.6667C8.18887 10.6667 8.34721 10.6028 8.47498 10.475C8.60276 10.3472 8.66665 10.1889 8.66665 9.99998C8.66665 9.8111 8.60276 9.65276 8.47498 9.52498C8.34721 9.39721 8.18887 9.33332 7.99998 9.33332C7.8111 9.33332 7.65276 9.39721 7.52498 9.52498C7.39721 9.65276 7.33332 9.8111 7.33332 9.99998C7.33332 10.1889 7.39721 10.3472 7.52498 10.475C7.65276 10.6028 7.8111 10.6667 7.99998 10.6667Z" fill="#FF4842"/>
</g>
</svg>
