<svg width="24" height="24" viewBox="0 0 24 24" fill="none" xmlns="http://www.w3.org/2000/svg">
<mask id="mask0_348_7040" style="mask-type:alpha" maskUnits="userSpaceOnUse" x="0" y="0" width="24" height="24">
<rect width="24" height="24" fill="#D9D9D9"/>
</mask>
<g mask="url(#mask0_348_7040)">
<path d="M19.6 20.5L13.3 14.2C12.8 14.6 12.225 14.9167 11.575 15.15C10.925 15.3833 10.2333 15.5 9.5 15.5C7.68333 15.5 6.14583 14.8708 4.8875 13.6125C3.62917 12.3542 3 10.8167 3 9C3 7.18333 3.62917 5.64583 4.8875 4.3875C6.14583 3.12917 7.68333 2.5 9.5 2.5C11.3167 2.5 12.8542 3.12917 14.1125 4.3875C15.3708 5.64583 16 7.18333 16 9C16 9.73333 15.8833 10.425 15.65 11.075C15.4167 11.725 15.1 12.3 14.7 12.8L21 19.1L19.6 20.5ZM9.5 13.5C10.75 13.5 11.8125 13.0625 12.6875 12.1875C13.5625 11.3125 14 10.25 14 9C14 7.75 13.5625 6.6875 12.6875 5.8125C11.8125 4.9375 10.75 4.5 9.5 4.5C8.25 4.5 7.1875 4.9375 6.3125 5.8125C5.4375 6.6875 5 7.75 5 9C5 10.25 5.4375 11.3125 6.3125 12.1875C7.1875 13.0625 8.25 13.5 9.5 13.5Z" fill="black"/>
</g>
</svg>
