<svg width="24" height="24" viewBox="0 0 24 24" fill="none" xmlns="http://www.w3.org/2000/svg">
<mask id="mask0_349_7133" style="mask-type:alpha" maskUnits="userSpaceOnUse" x="0" y="0" width="24" height="24">
<rect width="24" height="24" fill="#D9D9D9"/>
</mask>
<g mask="url(#mask0_349_7133)">
<path d="M9.24995 22L8.84995 18.8C8.63328 18.7167 8.42912 18.6167 8.23745 18.5C8.04578 18.3833 7.85828 18.2583 7.67495 18.125L4.69995 19.375L1.94995 14.625L4.52495 12.675C4.50828 12.5583 4.49995 12.4458 4.49995 12.3375V11.6625C4.49995 11.5542 4.50828 11.4417 4.52495 11.325L1.94995 9.375L4.69995 4.625L7.67495 5.875C7.85828 5.74167 8.04995 5.61667 8.24995 5.5C8.44995 5.38333 8.64995 5.28333 8.84995 5.2L9.24995 2H14.75L15.15 5.2C15.3666 5.28333 15.5708 5.38333 15.7625 5.5C15.9541 5.61667 16.1416 5.74167 16.325 5.875L19.3 4.625L22.05 9.375L20.2 10.775C19.8333 10.5917 19.4583 10.4375 19.075 10.3125C18.6916 10.1875 18.2833 10.1 17.85 10.05L19.425 8.85L18.45 7.15L15.975 8.2C15.6083 7.81667 15.2041 7.49583 14.7625 7.2375C14.3208 6.97917 13.8416 6.78333 13.325 6.65L13 4H11.025L10.675 6.65C10.1583 6.78333 9.67912 6.97917 9.23745 7.2375C8.79578 7.49583 8.39162 7.80833 8.02495 8.175L5.54995 7.15L4.57495 8.85L6.72495 10.45C6.64162 10.7 6.58328 10.95 6.54995 11.2C6.51662 11.45 6.49995 11.7167 6.49995 12C6.49995 12.2667 6.51662 12.525 6.54995 12.775C6.58328 13.025 6.64162 13.275 6.72495 13.525L4.57495 15.15L5.54995 16.85L8.02495 15.8C8.30828 16.0833 8.61245 16.3375 8.93745 16.5625C9.26245 16.7875 9.61662 16.975 9.99995 17.125C10.0166 18.075 10.2125 18.9667 10.5875 19.8C10.9625 20.6333 11.4666 21.3667 12.1 22H9.24995ZM10.275 15.025C10.375 14.6917 10.4958 14.3708 10.6375 14.0625C10.7791 13.7542 10.9416 13.4583 11.125 13.175C10.9416 13.0417 10.8 12.8708 10.7 12.6625C10.6 12.4542 10.55 12.2333 10.55 12C10.55 11.5833 10.6958 11.2292 10.9875 10.9375C11.2791 10.6458 11.6333 10.5 12.05 10.5C12.2833 10.5 12.5083 10.5542 12.725 10.6625C12.9416 10.7708 13.1166 10.9167 13.25 11.1C13.5333 10.9167 13.825 10.7542 14.125 10.6125C14.425 10.4708 14.7416 10.3583 15.075 10.275C14.775 9.74167 14.3583 9.3125 13.825 8.9875C13.2916 8.6625 12.7 8.5 12.05 8.5C11.0666 8.5 10.2375 8.84167 9.56245 9.525C8.88745 10.2083 8.54995 11.0333 8.54995 12C8.54995 12.6333 8.70412 13.2208 9.01245 13.7625C9.32078 14.3042 9.74162 14.725 10.275 15.025ZM17 20L20 17L17 14L16.3 14.7L18.1 16.5H14V17.5H18.075L16.3 19.3L17 20ZM17 22C15.6166 22 14.4375 21.5125 13.4625 20.5375C12.4875 19.5625 12 18.3833 12 17C12 15.6167 12.4875 14.4375 13.4625 13.4625C14.4375 12.4875 15.6166 12 17 12C18.3833 12 19.5625 12.4875 20.5375 13.4625C21.5125 14.4375 22 15.6167 22 17C22 18.3833 21.5125 19.5625 20.5375 20.5375C19.5625 21.5125 18.3833 22 17 22Z" fill="black"/>
</g>
</svg>
