<svg width="16" height="16" viewBox="0 0 16 16" fill="none" xmlns="http://www.w3.org/2000/svg">
<mask id="mask0_374_3981" style="mask-type:alpha" maskUnits="userSpaceOnUse" x="0" y="0" width="16" height="16">
<rect width="16" height="16" fill="#D9D9D9"/>
</mask>
<g mask="url(#mask0_374_3981)">
<path d="M7.06659 11.0667L11.7666 6.36671L10.8333 5.43337L7.06659 9.20004L5.16659 7.30004L4.23325 8.23337L7.06659 11.0667ZM7.99992 14.6667C7.0777 14.6667 6.21103 14.4917 5.39992 14.1417C4.58881 13.7917 3.88325 13.3167 3.28325 12.7167C2.68325 12.1167 2.20825 11.4112 1.85825 10.6C1.50825 9.78893 1.33325 8.92226 1.33325 8.00004C1.33325 7.07782 1.50825 6.21115 1.85825 5.40004C2.20825 4.58893 2.68325 3.88337 3.28325 3.28337C3.88325 2.68337 4.58881 2.20837 5.39992 1.85837C6.21103 1.50837 7.0777 1.33337 7.99992 1.33337C8.92214 1.33337 9.78881 1.50837 10.5999 1.85837C11.411 2.20837 12.1166 2.68337 12.7166 3.28337C13.3166 3.88337 13.7916 4.58893 14.1416 5.40004C14.4916 6.21115 14.6666 7.07782 14.6666 8.00004C14.6666 8.92226 14.4916 9.78893 14.1416 10.6C13.7916 11.4112 13.3166 12.1167 12.7166 12.7167C12.1166 13.3167 11.411 13.7917 10.5999 14.1417C9.78881 14.4917 8.92214 14.6667 7.99992 14.6667ZM7.99992 13.3334C9.48881 13.3334 10.7499 12.8167 11.7833 11.7834C12.8166 10.75 13.3333 9.48893 13.3333 8.00004C13.3333 6.51115 12.8166 5.25004 11.7833 4.21671C10.7499 3.18337 9.48881 2.66671 7.99992 2.66671C6.51103 2.66671 5.24992 3.18337 4.21659 4.21671C3.18325 5.25004 2.66659 6.51115 2.66659 8.00004C2.66659 9.48893 3.18325 10.75 4.21659 11.7834C5.24992 12.8167 6.51103 13.3334 7.99992 13.3334Z" fill="#98C910"/>
</g>
</svg>
