<svg width="250" height="250" viewBox="0 0 250 250" fill="none" xmlns="http://www.w3.org/2000/svg">
<rect width="250" height="250" fill="white"/>
<path d="M96.4062 215.887C95.2344 215.887 94.3789 214.938 94.3789 213.414C94.3789 211.902 95.2461 210.953 96.418 210.953C97.2617 210.953 97.6133 211.492 97.7539 211.762H97.8125V211.047H98.7031V214.469C98.7148 214.926 98.9141 215.148 99.2891 215.148C100.016 215.148 100.496 214.305 100.508 213.086C100.52 210.871 98.9141 209.43 96.6758 209.43C94.3555 209.441 92.8555 211.234 92.8555 213.414C92.8555 215.793 94.1562 217.434 96.6289 217.41C97.4492 217.398 97.9883 217.352 98.7031 217.152V217.949C98.0938 218.113 97.4023 218.219 96.6289 218.219C93.7695 218.219 92.0117 216.391 92.0117 213.414C92 210.648 93.9453 208.621 96.6758 208.621C99.4766 208.621 101.363 210.531 101.352 213.051C101.352 214.867 100.414 215.934 99.2305 215.934C98.4922 215.934 97.9355 215.518 97.8945 214.973H97.8125C97.6719 215.23 97.3203 215.887 96.4062 215.887ZM96.5586 215.031C97.3906 215.031 97.8125 214.375 97.8242 213.402C97.8125 212.453 97.4023 211.809 96.5586 211.809C95.7383 211.809 95.293 212.512 95.293 213.402C95.293 214.316 95.75 215.031 96.5586 215.031ZM105.371 217.129C103.637 217.129 102.465 215.828 102.465 213.848C102.465 211.867 103.637 210.555 105.371 210.555C107.094 210.555 108.254 211.867 108.254 213.848C108.254 215.828 107.094 217.129 105.371 217.129ZM105.371 216.238C106.648 216.238 107.246 215.113 107.246 213.848C107.246 212.582 106.648 211.445 105.371 211.445C104.07 211.445 103.473 212.582 103.473 213.848C103.473 215.113 104.07 216.238 105.371 216.238ZM109.578 217V210.637H110.551V211.609H110.621C110.855 210.965 111.512 210.531 112.262 210.531C112.414 210.531 112.672 210.543 112.789 210.555V211.574C112.719 211.551 112.438 211.504 112.18 211.504C111.266 211.504 110.586 212.137 110.586 212.992V217H109.578ZM115.965 217.129C114.383 217.129 113.258 215.852 113.258 213.836C113.258 211.82 114.383 210.555 115.977 210.555C117.207 210.555 117.605 211.305 117.816 211.645H117.887V208.516H118.906V217H117.922V216.027H117.816C117.594 216.379 117.184 217.129 115.965 217.129ZM116.105 216.227C117.266 216.227 117.922 215.242 117.922 213.812C117.922 212.406 117.289 211.457 116.105 211.457C114.887 211.457 114.277 212.488 114.277 213.812C114.277 215.172 114.898 216.227 116.105 216.227ZM123.324 217.129C121.484 217.129 120.348 215.828 120.348 213.871C120.348 211.914 121.496 210.555 123.23 210.555C124.566 210.555 125.973 211.375 125.973 213.73V214.152H121.355C121.402 215.5 122.188 216.238 123.324 216.238C124.086 216.238 124.566 215.91 124.801 215.512H125.879C125.574 216.473 124.637 217.129 123.324 217.129ZM121.367 213.297H124.953C124.953 212.23 124.273 211.445 123.23 211.445C122.129 211.445 121.426 212.312 121.367 213.297ZM127.285 217V210.637H128.258V211.609H128.328C128.562 210.965 129.219 210.531 129.969 210.531C130.121 210.531 130.379 210.543 130.496 210.555V211.574C130.426 211.551 130.145 211.504 129.887 211.504C128.973 211.504 128.293 212.137 128.293 212.992V217H127.285ZM134.668 212.91V213.836H130.953V212.91H134.668ZM136.215 219.391V210.637H137.188V211.645H137.305C137.516 211.305 137.914 210.555 139.145 210.555C140.738 210.555 141.852 211.82 141.852 213.836C141.852 215.852 140.738 217.129 139.156 217.129C137.938 217.129 137.516 216.379 137.305 216.027H137.223V219.391H136.215ZM137.199 213.812C137.199 215.242 137.844 216.227 139.016 216.227C140.223 216.227 140.844 215.172 140.844 213.812C140.844 212.488 140.234 211.457 139.016 211.457C137.82 211.457 137.199 212.406 137.199 213.812ZM143.164 217V210.637H144.172V217H143.164ZM143.668 209.582C143.281 209.582 142.965 209.289 142.965 208.914C142.965 208.539 143.281 208.246 143.668 208.246C144.055 208.246 144.383 208.539 144.383 208.914C144.383 209.289 144.055 209.582 143.668 209.582ZM146.785 213.18V217H145.777V210.637H146.75V211.633H146.832C147.137 210.988 147.723 210.555 148.695 210.555C149.984 210.555 150.84 211.34 150.84 212.957V217H149.832V213.027C149.832 212.043 149.293 211.457 148.391 211.457C147.465 211.457 146.785 212.078 146.785 213.18ZM155.035 219.52C153.5 219.52 152.457 218.852 152.34 217.668H153.395C153.535 218.312 154.133 218.641 155.035 218.641C156.125 218.641 156.793 218.172 156.793 217.117V215.828H156.711C156.5 216.18 156.09 216.906 154.859 216.906C153.312 216.906 152.152 215.734 152.152 213.73C152.152 211.773 153.277 210.555 154.871 210.555C156.102 210.555 156.5 211.305 156.734 211.645H156.816V210.637H157.801V217.176C157.801 218.816 156.582 219.52 155.035 219.52ZM155 216.004C156.16 216.004 156.816 215.172 156.816 213.766C156.816 212.406 156.184 211.457 155 211.457C153.781 211.457 153.172 212.488 153.172 213.766C153.172 215.09 153.793 216.004 155 216.004Z" fill="#888889"/>
<mask id="mask0_763_5126" style="mask-type:alpha" maskUnits="userSpaceOnUse" x="50" y="50" width="150" height="150">
<rect x="50" y="50" width="150" height="150" fill="#D9D9D9"/>
</mask>
<g mask="url(#mask0_763_5126)">
<path d="M80.7144 181.25C77.2769 181.25 74.3341 180.026 71.8862 177.578C69.4383 175.13 68.2144 172.188 68.2144 168.75V81.25C68.2144 77.8125 69.4383 74.8698 71.8862 72.4219C74.3341 69.974 77.2769 68.75 80.7144 68.75H86.9644V56.25H99.4644V68.75H149.464V56.25H161.964V68.75H168.214C171.652 68.75 174.595 69.974 177.042 72.4219C179.49 74.8698 180.714 77.8125 180.714 81.25V168.75C180.714 172.188 179.49 175.13 177.042 177.578C174.595 180.026 171.652 181.25 168.214 181.25H80.7144ZM168.214 168.75V81.25H80.7144V168.75H168.214ZM105.714 156.25H115.089V131.25C117.798 130.521 120.037 129.036 121.808 126.797C123.579 124.557 124.464 122.031 124.464 119.219V93.75H118.214V117.344H113.527V93.75H107.277V117.344H102.589V93.75H96.3394V119.219C96.3394 122.031 97.2248 124.557 98.9956 126.797C100.766 129.036 103.006 130.521 105.714 131.25V156.25ZM143.214 156.25H152.589V93.75C147.381 93.75 142.954 95.5729 139.308 99.2188C135.662 102.865 133.839 107.292 133.839 112.5V131.25H143.214V156.25Z" fill="#D9D9D9"/>
</g>
</svg>
