<svg width="250" height="250" viewBox="0 0 250 250" fill="none" xmlns="http://www.w3.org/2000/svg">
<rect width="250" height="250" fill="white"/>
<path d="M138.139 105.86C166.782 134.493 183.67 164.045 175.856 171.859C172.689 175.019 165.948 174.125 157.141 170.039C146.549 177.041 134.01 180.508 121.324 179.94C108.639 179.372 96.4596 174.8 86.5353 166.879L86.282 167.139L76.8546 157.712L77.1079 157.446C69.1929 147.523 64.625 135.348 64.0596 122.668C63.4943 109.988 66.9605 97.4546 73.961 86.8667C69.8674 78.0535 68.974 71.3136 72.1409 68.147C79.6615 60.6271 107.324 75.9935 134.926 102.693L138.139 105.86ZM128.712 115.286C116.151 102.726 103.13 92.2799 92.2358 85.8L90.9957 87C83.0588 94.9345 78.2472 105.463 77.4427 116.656C76.6382 127.85 79.8947 138.958 86.6153 147.946L98.923 135.639C98.1606 132.803 98.3561 129.794 99.4792 127.08C100.602 124.366 102.59 122.099 105.134 120.631C107.678 119.163 110.636 118.575 113.548 118.96C116.46 119.345 119.163 120.681 121.238 122.759C123.316 124.834 124.65 127.536 125.035 130.447C125.42 133.358 124.833 136.314 123.366 138.857C121.898 141.4 119.633 143.388 116.92 144.511C114.208 145.635 111.2 145.832 108.364 145.072L96.0427 157.379C105.032 164.101 116.143 167.358 127.339 166.554C138.534 165.749 149.065 160.937 157.001 152.999L158.194 151.746L157.841 151.152C151.334 140.386 141.04 127.619 128.712 115.286ZM175.856 68.147C177.182 69.473 178.213 71.0638 178.882 72.8155C179.552 74.5672 179.844 76.4404 179.74 78.3127C179.637 80.185 179.139 82.0144 178.28 83.6814C177.421 85.3483 176.22 86.8154 174.756 87.9867C179.934 96.2121 183.041 105.57 183.811 115.259C184.581 124.948 182.99 134.679 179.176 143.619C176.427 138.303 173.341 133.168 169.935 128.246C171.271 120.838 170.793 113.216 168.54 106.033C166.288 98.8496 162.328 92.3191 157.001 87C151.681 81.673 145.15 77.714 137.966 75.4617C130.783 73.2093 123.16 72.7308 115.751 74.0669C110.829 70.6615 105.694 67.5752 100.376 64.827C109.319 61.0106 119.053 59.419 128.746 60.1888C138.438 60.9586 147.8 64.0668 156.027 69.247C156.321 68.8648 156.645 68.4981 157.001 68.147C159.501 65.6474 162.892 64.2432 166.428 64.2432C169.964 64.2432 173.355 65.6474 175.856 68.147Z" fill="#D9D9D9"/>
<path d="M96.4062 215.887C95.2344 215.887 94.3789 214.938 94.3789 213.414C94.3789 211.902 95.2461 210.953 96.418 210.953C97.2617 210.953 97.6133 211.492 97.7539 211.762H97.8125V211.047H98.7031V214.469C98.7148 214.926 98.9141 215.148 99.2891 215.148C100.016 215.148 100.496 214.305 100.508 213.086C100.52 210.871 98.9141 209.43 96.6758 209.43C94.3555 209.441 92.8555 211.234 92.8555 213.414C92.8555 215.793 94.1562 217.434 96.6289 217.41C97.4492 217.398 97.9883 217.352 98.7031 217.152V217.949C98.0938 218.113 97.4023 218.219 96.6289 218.219C93.7695 218.219 92.0117 216.391 92.0117 213.414C92 210.648 93.9453 208.621 96.6758 208.621C99.4766 208.621 101.363 210.531 101.352 213.051C101.352 214.867 100.414 215.934 99.2305 215.934C98.4922 215.934 97.9355 215.518 97.8945 214.973H97.8125C97.6719 215.23 97.3203 215.887 96.4062 215.887ZM96.5586 215.031C97.3906 215.031 97.8125 214.375 97.8242 213.402C97.8125 212.453 97.4023 211.809 96.5586 211.809C95.7383 211.809 95.293 212.512 95.293 213.402C95.293 214.316 95.75 215.031 96.5586 215.031ZM105.371 217.129C103.637 217.129 102.465 215.828 102.465 213.848C102.465 211.867 103.637 210.555 105.371 210.555C107.094 210.555 108.254 211.867 108.254 213.848C108.254 215.828 107.094 217.129 105.371 217.129ZM105.371 216.238C106.648 216.238 107.246 215.113 107.246 213.848C107.246 212.582 106.648 211.445 105.371 211.445C104.07 211.445 103.473 212.582 103.473 213.848C103.473 215.113 104.07 216.238 105.371 216.238ZM109.578 217V210.637H110.551V211.609H110.621C110.855 210.965 111.512 210.531 112.262 210.531C112.414 210.531 112.672 210.543 112.789 210.555V211.574C112.719 211.551 112.438 211.504 112.18 211.504C111.266 211.504 110.586 212.137 110.586 212.992V217H109.578ZM115.965 217.129C114.383 217.129 113.258 215.852 113.258 213.836C113.258 211.82 114.383 210.555 115.977 210.555C117.207 210.555 117.605 211.305 117.816 211.645H117.887V208.516H118.906V217H117.922V216.027H117.816C117.594 216.379 117.184 217.129 115.965 217.129ZM116.105 216.227C117.266 216.227 117.922 215.242 117.922 213.812C117.922 212.406 117.289 211.457 116.105 211.457C114.887 211.457 114.277 212.488 114.277 213.812C114.277 215.172 114.898 216.227 116.105 216.227ZM123.324 217.129C121.484 217.129 120.348 215.828 120.348 213.871C120.348 211.914 121.496 210.555 123.23 210.555C124.566 210.555 125.973 211.375 125.973 213.73V214.152H121.355C121.402 215.5 122.188 216.238 123.324 216.238C124.086 216.238 124.566 215.91 124.801 215.512H125.879C125.574 216.473 124.637 217.129 123.324 217.129ZM121.367 213.297H124.953C124.953 212.23 124.273 211.445 123.23 211.445C122.129 211.445 121.426 212.312 121.367 213.297ZM127.285 217V210.637H128.258V211.609H128.328C128.562 210.965 129.219 210.531 129.969 210.531C130.121 210.531 130.379 210.543 130.496 210.555V211.574C130.426 211.551 130.145 211.504 129.887 211.504C128.973 211.504 128.293 212.137 128.293 212.992V217H127.285ZM134.668 212.91V213.836H130.953V212.91H134.668ZM136.215 219.391V210.637H137.188V211.645H137.305C137.516 211.305 137.914 210.555 139.145 210.555C140.738 210.555 141.852 211.82 141.852 213.836C141.852 215.852 140.738 217.129 139.156 217.129C137.938 217.129 137.516 216.379 137.305 216.027H137.223V219.391H136.215ZM137.199 213.812C137.199 215.242 137.844 216.227 139.016 216.227C140.223 216.227 140.844 215.172 140.844 213.812C140.844 212.488 140.234 211.457 139.016 211.457C137.82 211.457 137.199 212.406 137.199 213.812ZM143.164 217V210.637H144.172V217H143.164ZM143.668 209.582C143.281 209.582 142.965 209.289 142.965 208.914C142.965 208.539 143.281 208.246 143.668 208.246C144.055 208.246 144.383 208.539 144.383 208.914C144.383 209.289 144.055 209.582 143.668 209.582ZM146.785 213.18V217H145.777V210.637H146.75V211.633H146.832C147.137 210.988 147.723 210.555 148.695 210.555C149.984 210.555 150.84 211.34 150.84 212.957V217H149.832V213.027C149.832 212.043 149.293 211.457 148.391 211.457C147.465 211.457 146.785 212.078 146.785 213.18ZM155.035 219.52C153.5 219.52 152.457 218.852 152.34 217.668H153.395C153.535 218.312 154.133 218.641 155.035 218.641C156.125 218.641 156.793 218.172 156.793 217.117V215.828H156.711C156.5 216.18 156.09 216.906 154.859 216.906C153.312 216.906 152.152 215.734 152.152 213.73C152.152 211.773 153.277 210.555 154.871 210.555C156.102 210.555 156.5 211.305 156.734 211.645H156.816V210.637H157.801V217.176C157.801 218.816 156.582 219.52 155.035 219.52ZM155 216.004C156.16 216.004 156.816 215.172 156.816 213.766C156.816 212.406 156.184 211.457 155 211.457C153.781 211.457 153.172 212.488 153.172 213.766C153.172 215.09 153.793 216.004 155 216.004Z" fill="#888889"/>
</svg>
